<?xml version="1.0" standalone="no"?>
<!DOCTYPE svg PUBLIC "-//W3C//DTD SVG 20010904//EN"
 "http://www.w3.org/TR/2001/REC-SVG-20010904/DTD/svg10.dtd">
<svg version="1.0" xmlns="http://www.w3.org/2000/svg"
 width="700.000000pt" height="700.000000pt" viewBox="0 0 700.000000 700.000000"
 preserveAspectRatio="xMidYMid meet">
<metadata>
Created by potrace 1.14, written by Peter Selinger 2001-2017
</metadata>
<g transform="translate(0.000000,700.000000) scale(0.100000,-0.100000)"
fill="#000000" stroke="none">
<path d="M3278 6995 c-1 -1 -42 -5 -89 -9 -47 -4 -95 -8 -105 -10 -10 -2 -41
-7 -69 -10 -135 -18 -225 -36 -390 -77 -296 -75 -597 -198 -880 -362 -103 -60
-265 -165 -315 -204 -8 -6 -51 -40 -95 -74 -340 -264 -650 -624 -875 -1014
-47 -83 -170 -327 -170 -340 0 -3 -9 -24 -20 -48 -57 -123 -157 -435 -186
-582 -2 -11 -10 -54 -19 -95 -29 -147 -36 -200 -52 -370 -15 -165 -8 -592 12
-711 2 -13 6 -46 9 -74 9 -78 22 -152 51 -285 21 -96 91 -339 114 -395 5 -11
25 -65 46 -120 64 -170 213 -461 314 -615 492 -745 1216 -1267 2061 -1486 146
-38 269 -63 389 -80 25 -3 57 -8 71 -10 163 -25 682 -25 841 1 13 2 47 7 74
10 71 10 87 13 115 18 14 3 43 8 65 12 22 4 76 16 120 27 44 10 87 21 96 23
35 8 168 48 239 72 557 188 1090 542 1480 982 36 41 70 79 76 85 6 6 48 61 94
121 150 197 277 405 383 628 26 53 47 99 47 102 0 2 11 28 24 57 57 127 151
421 182 573 17 81 54 301 59 350 4 33 9 71 11 85 9 46 11 524 4 605 -12 128
-21 202 -25 227 -3 13 -8 43 -11 68 -3 25 -21 113 -40 195 -51 232 -101 386
-196 609 -424 998 -1304 1752 -2350 2017 -118 29 -241 55 -308 64 -19 3 -46 7
-60 10 -13 2 -52 7 -86 11 -33 3 -74 8 -90 10 -33 5 -540 14 -546 9z"/>
</g>
</svg>
