<?xml version="1.0" encoding="UTF-8"?>
<svg id="Layer_1" data-name="Layer 1" xmlns="http://www.w3.org/2000/svg" viewBox="0 0 113.16 113.16">
  <defs>
    <style>
      .cls-1 {
        fill: #fff;
        stroke: #e93d4d;
        stroke-miterlimit: 10;
        stroke-width: 2.5px;
      }

      .cls-2 {
        fill: #e93d4d;
      }
    </style>
  </defs>
  <circle class="cls-1" cx="56.58" cy="56.58" r="55.33"/>
  <g>
    <path class="cls-2" d="M85.58,54.55c-.38-1.61-1-3.06-1.87-4.34-.87-1.29-2-2.37-3.39-3.26-1.39-.89-3.07-1.54-5.05-1.97,1.98-1.39,3.45-3.09,4.41-5.1,.97-2.01,1.45-4.54,1.45-7.6,0-5.03-1.27-8.89-3.81-11.58-2.54-2.68-6.26-4.02-11.15-4.02h-15.65c-2.74,0-4.96,2.53-4.96,5.65v17.38c3.33-1.2,6.93-1.83,10.85-1.83s7.46,.67,10.81,2.01c2.51,1,4.78,2.51,6.82,4.54,1.12,1.11,1.08,2.93-.15,3.93l-.1,.08c-1.1,.9-2.72,.79-3.67-.26-1.48-1.63-3.23-2.88-5.23-3.76-2.76-1.21-5.58-1.81-8.48-1.81-3.69,0-7.03,.63-10,1.89-.31,.13-.55,.32-.85,.46v26.71c0,3.12,2.22,5.65,4.96,5.65h17.27c2.82,0,5.36-.37,7.62-1.13,2.26-.75,4.18-1.87,5.75-3.38,1.58-1.5,2.8-3.35,3.67-5.55,.87-2.2,1.31-4.72,1.31-7.56,0-1.82-.19-3.54-.57-5.15Z"/>
    <path class="cls-2" d="M44.49,40.08c-3.62,1.47-6.71,3.51-9.28,6.1-2.57,2.6-4.58,5.68-6.02,9.25-1.44,3.57-2.17,7.48-2.17,11.73s.73,8.18,2.17,11.77c1.44,3.6,3.45,6.69,6.02,9.29,2.57,2.6,5.66,4.62,9.28,6.07,3.61,1.44,7.59,2.16,11.93,2.16s8.06-.79,11.65-2.36c2.8-1.23,5.33-3.08,7.61-5.55,1.06-1.15,.91-2.96-.35-3.9-1.11-.83-2.69-.67-3.61,.36-.63,.72-1.32,1.37-2.05,1.96-1.34,1.08-2.75,1.97-4.22,2.68-1.47,.71-2.99,1.23-4.54,1.57-1.55,.34-3.05,.51-4.5,.51-3.69,0-7.03-.63-10-1.89-2.97-1.26-5.5-2.99-7.59-5.2-2.09-2.2-3.69-4.8-4.82-7.8-1.12-2.99-1.69-6.22-1.69-9.69s.56-6.69,1.69-9.69c1.13-2.99,2.73-5.59,4.82-7.8,1.87-1.98,4.16-3.52,6.74-4.74v-5.25c-.36,.13-.73,.23-1.07,.37Z"/>
  </g>
</svg>